<svg width="24" height="24" viewBox="0 0 24 24" fill="none" xmlns="http://www.w3.org/2000/svg">
<path d="M12 0C5.373 0 0 5.373 0 12C0 18.627 5.373 24 12 24C18.627 24 24 18.627 24 12C23.992 5.376 18.624 0.008 12.001 0H12ZM11.505 15.689C11.573 15.892 10.98 16.484 10.93 16.518C10.88 16.552 9.78 15.943 9.593 15.858C9.33228 15.4153 9.13089 14.9402 8.994 14.445L8.984 14.403L8.578 14.014C8.578 14.014 7.648 13.32 7.563 13.287C7.478 13.254 7.309 11.951 7.255 11.832C7.10851 11.6245 6.93498 11.4375 6.739 11.276L6.734 11.272C6.63649 10.8742 6.58548 10.4665 6.582 10.057V10.054C6.625 9.623 6.764 9.232 6.977 8.892L6.97 8.903C7.24046 8.44532 7.31849 7.8991 7.187 7.384L7.19 7.398C7.088 7.229 6.425 7.478 6.425 7.478C6.25366 7.38352 6.07127 7.31063 5.882 7.261L5.865 7.257L5.522 6.617C5.522 6.617 3.478 6.471 3.512 6.421C5.459 3.689 8.615 1.929 12.183 1.929C12.656 1.929 13.122 1.96 13.579 2.02L13.525 2.014H13.635C14.001 2.041 14.339 2.041 14.531 2.381C14.569 2.447 15.255 3.05 15.238 3.05H13.364L12.975 3.388L14.685 4.41C14.451 4.474 13.975 4.622 13.655 4.724C13.4383 4.79205 13.235 4.89692 13.054 5.034L13.059 5.03L12.383 5.537L11.754 6.436L12.67 7.113C12.67 7.113 13.736 7.925 13.79 7.959C13.844 7.993 14.06 7.282 14.06 7.282C14.0353 6.734 14.012 6.18533 13.99 5.636L14.497 5.805L15.241 5.737L16.07 6.377C16.213 6.601 16.355 6.861 16.477 7.133L16.493 7.173C16.483 7.287 16.403 7.908 16.547 7.931H16.553C16.5794 7.93082 16.6053 7.92357 16.628 7.91H16.627C16.884 7.785 17.128 7.64 17.373 7.495C17.489 7.426 17.737 7.206 17.878 7.206C17.817 7.456 17.73 7.676 17.617 7.88L17.624 7.866C17.598 7.906 16.964 8.961 16.694 9.409C16.609 9.549 16.515 9.67 16.407 9.778L15.527 10.674L15.832 11.198L15.096 12.069C15.0345 12.1416 14.968 12.2098 14.897 12.273L14.895 12.275L14.106 12.974C14.106 12.974 13.244 13.177 13.192 13.177C13.14 13.177 12.498 13.329 12.498 13.329C12.498 13.329 11.28 13.211 11.111 13.853C11.0733 14.4963 11.2109 15.1377 11.509 15.709L11.5 15.689H11.505ZM20.491 12.551C20.645 12.517 20.081 13.271 20.046 13.389C19.8613 13.6456 19.6556 13.8864 19.431 14.109L18.471 14.229C18.5481 13.7949 18.7658 13.3981 19.0905 13.0998C19.4152 12.8015 19.8289 12.6181 20.268 12.578L20.276 12.577C20.381 12.567 20.46 12.558 20.49 12.551H20.491ZM15.046 15.556L14.597 14.892C14.561 14.838 14.776 14.605 14.776 14.605C14.776 14.605 16.481 14.354 16.642 14.371C16.803 14.388 17.072 14.892 17.072 14.892C17.072 14.892 16.48 15.663 16.282 15.663C16.084 15.663 15.044 15.556 15.044 15.556H15.046ZM15.5 17.884C15.5 17.884 15.295 17.97 15.09 18.072C14.885 18.174 14.628 18.26 14.594 18.192C14.4595 18.0502 14.3076 17.9259 14.142 17.822L14.132 17.816C13.8835 17.6359 13.6187 17.4796 13.341 17.349L13.311 17.336C13.0467 17.2 12.8145 17.0091 12.63 16.776L12.627 16.772C12.583 16.673 12.798 16.379 12.832 16.225C12.866 16.071 12.815 15.612 12.918 15.665C13.021 15.718 13.243 15.585 13.465 15.665C13.715 15.744 13.928 15.879 14.097 16.056L14.098 16.057C14.201 16.281 14.345 16.469 14.523 16.619L14.525 16.621C14.713 16.741 15.055 16.877 15.038 17.101C15.021 17.325 15.295 17.614 15.295 17.614L15.5 17.884ZM15.834 21.084C14.903 20.671 14.67 20.204 14.741 20.115C15.041 19.849 15.316 19.58 15.577 19.297L15.584 19.289C15.763 19.038 16.697 17.979 16.697 17.979L16.41 17.405L17.21 16.931C17.447 16.789 17.726 16.693 18.026 16.663L18.034 16.662L18.814 16.586C18.8607 16.5813 18.907 16.5783 18.953 16.577L20.211 16.543C20.211 16.543 21.354 16.247 21.18 16.561C18.562 21.291 15.834 21.082 15.834 21.082V21.084Z" fill="black"/>
</svg>
