<svg width="28" height="28" viewBox="0 0 28 28" fill="none" xmlns="http://www.w3.org/2000/svg">
<path d="M21.75 3C22.612 3 23.4386 3.34241 24.0481 3.9519C24.6576 4.5614 25 5.38805 25 6.25V21.75C25 22.612 24.6576 23.4386 24.0481 24.0481C23.4386 24.6576 22.612 25 21.75 25H6.25C5.38805 25 4.5614 24.6576 3.9519 24.0481C3.34241 23.4386 3 22.612 3 21.75V6.25C3 5.38805 3.34241 4.5614 3.9519 3.9519C4.5614 3.34241 5.38805 3 6.25 3H21.75ZM21.75 4.5H6.25C5.78587 4.5 5.34075 4.68437 5.01256 5.01256C4.68437 5.34075 4.5 5.78587 4.5 6.25V15H10.5C10.6812 15 10.8563 15.0656 10.9929 15.1848C11.1295 15.3039 11.2184 15.4684 11.243 15.648L11.25 15.75C11.25 16.4793 11.5397 17.1788 12.0555 17.6945C12.5712 18.2103 13.2707 18.5 14 18.5C14.7293 18.5 15.4288 18.2103 15.9445 17.6945C16.4603 17.1788 16.75 16.4793 16.75 15.75C16.75 15.5688 16.8156 15.3937 16.9348 15.2571C17.0539 15.1205 17.2184 15.0316 17.398 15.007L17.5 15H23.5V6.25C23.5 5.78587 23.3156 5.34075 22.9874 5.01256C22.6592 4.68437 22.2141 4.5 21.75 4.5Z" fill="black"/>
</svg>
