<svg width="16" height="16" viewBox="0 0 16 16" fill="none" xmlns="http://www.w3.org/2000/svg">
<g clip-path="url(#clip0)">
<rect x="15.9999" y="16" width="16" height="16" rx="2" transform="rotate(-180 15.9999 16)" fill="white" fill-opacity="0.89"/>
<rect x="11.9999" y="14" width="8" height="12" transform="rotate(-180 11.9999 14)" fill="#369A8E"/>
<path d="M13.9999 16C14.5304 16 15.0391 15.7893 15.4142 15.4142C15.7892 15.0391 15.9999 14.5304 15.9999 14V2C15.9999 1.46957 15.7892 0.96086 15.4142 0.585787C15.0391 0.210714 14.5304 0 13.9999 0H1.99994C1.46951 0 0.960799 0.210714 0.585726 0.585787C0.210653 0.96086 -6.10352e-05 1.46957 -6.10352e-05 2V14C-6.10352e-05 14.5304 0.210653 15.0391 0.585726 15.4142C0.960799 15.7893 1.46951 16 1.99994 16H13.9999ZM7.49994 11.5V5.707L5.35394 7.854C5.30745 7.90049 5.25226 7.93736 5.19152 7.96252C5.13078 7.98768 5.06568 8.00063 4.99994 8.00063C4.9342 8.00063 4.86909 7.98768 4.80836 7.96252C4.74762 7.93736 4.69243 7.90049 4.64594 7.854C4.59945 7.80751 4.56257 7.75232 4.53742 7.69158C4.51226 7.63084 4.49931 7.56574 4.49931 7.5C4.49931 7.43426 4.51226 7.36916 4.53742 7.30842C4.56257 7.24768 4.59945 7.19249 4.64594 7.146L7.64594 4.146C7.69238 4.09944 7.74756 4.06249 7.80831 4.03729C7.86905 4.01208 7.93417 3.99911 7.99994 3.99911C8.06571 3.99911 8.13083 4.01208 8.19157 4.03729C8.25232 4.06249 8.30749 4.09944 8.35394 4.146L11.3539 7.146C11.4004 7.19249 11.4373 7.24768 11.4625 7.30842C11.4876 7.36916 11.5006 7.43426 11.5006 7.5C11.5006 7.56574 11.4876 7.63084 11.4625 7.69158C11.4373 7.75232 11.4004 7.80751 11.3539 7.854C11.2601 7.94789 11.1327 8.00063 10.9999 8.00063C10.9342 8.00063 10.8691 7.98768 10.8084 7.96252C10.7476 7.93736 10.6924 7.90049 10.6459 7.854L8.49994 5.707V11.5C8.49994 11.6326 8.44726 11.7598 8.35349 11.8536C8.25972 11.9473 8.13255 12 7.99994 12C7.86733 12 7.74015 11.9473 7.64639 11.8536C7.55262 11.7598 7.49994 11.6326 7.49994 11.5Z" fill="#7ADECC"/>
</g>
<defs>
<clipPath id="clip0">
<rect x="15.9999" y="16" width="16" height="16" rx="2" transform="rotate(-180 15.9999 16)" fill="white"/>
</clipPath>
</defs>
</svg>
